# xmcd CD database file
#
# Track frame offsets:
#	150
#	38138
#	76063
#	112813
#	124835
#	128908
#	135335
#	153875
#	162578
#	180350
#	192450
#	203038
#	221990
#	250560
#
# Disc length: 3633 seconds
#
# Revision: 0
# Processed by: cddbd v1.5.1PL2 Copyright (c) Steve Scherf et al.
# Submitted via: CDex 1.51
#
DISCID=b60e2f0e
DTITLE=Forever Classics - Forever Classics 07 Bruch
DYEAR=2005
DGENRE=Classical
TTITLE0=ブルッフ／ヴァイオリン協奏曲第1番ト短調作品26
TTITLE1=ブルッフ／ヴァイオリン協奏曲第1番ト短調作品26
TTITLE2=ブルッフ／ヴァイオリン協奏曲第1番ト短調作品26
TTITLE3=チャイコフスキー／ロココ風の主題による変奏曲イ長調作品33
TTITLE4=チャイコフスキー／ロココ風の主題による変奏曲イ長調作品33
TTITLE5=チャイコフスキー／ロココ風の主題による変奏曲イ長調作品33
TTITLE6=チャイコフスキー／ロココ風の主題による変奏曲イ長調作品33
TTITLE7=チャイコフスキー／ロココ風の主題による変奏曲イ長調作品33
TTITLE8=チャイコフスキー／ロココ風の主題による変奏曲イ長調作品33
TTITLE9=チャイコフスキー／ロココ風の主題による変奏曲イ長調作品33
TTITLE10=チャイコフスキー／ロココ風の主題による変奏曲イ長調作品33
TTITLE11=JSバッハ／2つのヴァイオリンのための協奏曲ニ短調BWV1043
TTITLE12=JSバッハ／2つのヴァイオリンのための協奏曲ニ短調BWV1043
TTITLE13=JSバッハ／2つのヴァイオリンのための協奏曲ニ短調BWV1043
EXTD=YEAR: 2005
EXTT0=
EXTT1=
EXTT2=
EXTT3=
EXTT4=
EXTT5=
EXTT6=
EXTT7=
EXTT8=
EXTT9=
EXTT10=
EXTT11=
EXTT12=
EXTT13=
PLAYORDER=
